<?xml version="1.0" encoding="utf-8"?>
<!-- Generator: Adobe Illustrator 22.1.0, SVG Export Plug-In . SVG Version: 6.00 Build 0)  -->
<svg version="1.1" id="Layer_1" xmlns="http://www.w3.org/2000/svg" xmlns:xlink="http://www.w3.org/1999/xlink" x="0px" y="0px"
	 viewBox="0 0 1080 1080" style="enable-background:new 0 0 1080 1080;" xml:space="preserve">
<style type="text/css">
	.st0{fill:#AF2025;}
	.st1{fill:#388E5F;}
	.st2{fill:#2F5C8B;}
</style>
<g>
	<path class="st0" d="M518.6,574.1h-17c-0.7,0-1.1,0.4-1.2,1l-7.4,38.5c-0.1,0.7-1.2,8.5-1.2,8.5h-0.5l-1.3-8.3l-9.3-38.6
		c-0.1-0.7-0.5-1-1.1-1h-9.9c-0.5,0-0.9,0.4-1.1,1l-9.6,38.8l-1.3,8.8h-0.5l-1.3-8.8l-7.2-38.8c-0.1-0.7-0.7-1-1.3-1h-16.8
		c-0.9,0-1.6,0.4-1.3,1.3l18.3,79.6c0.1,0.7,0.7,1,1.3,1H461c0.8,0,1.2-0.3,1.3-0.9l10.5-38.9c0.1-0.5,1.4-7.4,1.4-7.4h0.5
		c0,0,1.4,6.9,1.6,7.4l10.6,38.9c0.1,0.7,0.5,0.9,1.2,0.9h12.1c0.7,0,1.2-0.4,1.3-1l18.3-79.6C520.2,574.5,519.5,574.1,518.6,574.1z
		"/>
	<path class="st0" d="M529.1,656h15.8c0.8,0,1.3-0.4,1.3-1.3v-30.8c0-0.9,0.4-1.3,1.4-1.3h10.5c15.8,0,26.2-10.1,26.2-23.4
		c0-15.5-10.1-25.1-26.2-25.1h-29.1c-0.8,0-1.3,0.4-1.3,1.3v79.4C527.8,655.7,528.3,656,529.1,656z M546.2,591.6
		c0-0.9,0.4-1.4,1.4-1.4h10.5c4.5,0,8,3.6,8,7.5v1.2c0,3.9-3.5,7.4-8,7.4h-10.5c-1.1,0-1.4-0.4-1.4-1.3V591.6z"/>
	<path class="st0" d="M644.6,639.8H613c-1.1,0-1.4-0.4-1.4-1.3v-63.1c0-0.9-0.5-1.3-1.3-1.3h-15.8c-0.8,0-1.3,0.4-1.3,1.3v79.4
		c0,0.9,0.5,1.3,1.3,1.3h50.2c0.9,0,1.3-0.4,1.3-1.3v-13.7C646,640.2,645.4,639.8,644.6,639.8z"/>
	<path class="st1" d="M475.3,684.4h-25.5c-0.9,0-1.3,0.4-1.3,1.3v79.2c0,0.9,0.4,1.3,1.3,1.3h25.5c13.9,0,23-8.8,23-22.8v-36.6
		C498.3,693.1,489.3,684.4,475.3,684.4z M489.5,744.9c0,7.8-6.3,13.9-14.2,13.9h-16.7c-0.9,0-1.3-0.4-1.3-1.3v-64.4
		c0-0.9,0.4-1.3,1.3-1.3h16.7c7.9,0,14.2,6.2,14.2,13.8V744.9z"/>
	<path class="st1" d="M561.3,684.4h-43.1c-0.9,0-1.3,0.4-1.3,1.3v79.2c0,0.9,0.4,1.3,1.3,1.3h43.1c0.9,0,1.3-0.4,1.3-1.3v-4.8
		c0-0.9-0.4-1.3-1.3-1.3H527c-0.9,0-1.3-0.4-1.3-1.3v-27.8c0-0.9,0.4-1.3,1.3-1.3h28.1c0.9,0,1.3-0.4,1.3-1.3v-4.8
		c0-0.9-0.4-1.3-1.3-1.3H527c-0.9,0-1.3-0.4-1.3-1.3v-26.5c0-0.9,0.4-1.3,1.3-1.3h34.3c0.9,0,1.3-0.4,1.3-1.3v-4.8
		C562.6,684.8,562.2,684.4,561.3,684.4z"/>
	<path class="st1" d="M629.6,684.4h-6.7c-0.7,0-1.2,0.3-1.3,0.9l-16.8,61c-0.3,0.9-1.1,4.2-1.3,5.2h-0.7c-0.3-1-1.1-4.3-1.3-5.2
		l-17.5-61c-0.1-0.7-0.7-0.9-1.3-0.9H576c-0.9,0-1.4,0.4-1.4,1c0,0.5,0.5,1.8,0.9,3.3l23.7,76.6c0.1,0.7,0.7,0.9,1.3,0.9h4.7
		c0.7,0,1.2-0.3,1.3-0.9l23.4-75.9c0.4-1.2,1.2-3.5,1.2-4C631.1,684.8,630.5,684.4,629.6,684.4z"/>
	<path class="st2" d="M944,449.8c0-96.3-32.9-188.4-92.7-259.4C790.1,117.6,705.5,70.3,606.8,53.5l-1.8-0.6
		c-5.1-1.8-10.7,0.4-13.2,5.2c-2.5,4.8-1.1,10.7,3.3,13.8c50.9,36.3,111.4,119.3,136.1,155h-64.6c-3.4,0-6.6,1.6-8.6,4.3
		c-2.1,2.7-2.7,6.2-1.8,9.5c10.6,38,50.3,72.4,117.9,102.3c38.2,16.9,74.2,27.3,89,31.2c5.7,24.6,8.6,50,8.6,75.6
		c0,53.9-12.5,105.2-37.1,152.7c-20.9,40.3-50.3,76.3-85.6,105v-31.1c0-70.4-35.2-132.8-88.8-170.5c0.4-0.7,0.7-1.5,0.9-2.3
		c7.9-31.9,9.8-59.9,5.7-83.2c-3.5-19.6-11.3-35.2-22.1-44c-8.9-7.3-19.2-9.2-27.5-5.3c-8.2,3.9-13,12.6-13,23.9
		c0,23.7-12.3,61.3-18.3,78.1c-14.5-3.2-29.6-4.9-45.1-4.9c-15.3,0-30.1,1.7-44.5,4.8c-6-16.9-18.2-54.4-18.2-78
		c0-11.3-4.7-20-13-23.9c-8.4-4-18.7-2-27.5,5.3c-10.8,8.8-18.6,24.5-22.1,44c-4.1,23.3-2.2,51.3,5.7,83.2c0.2,0.7,0.4,1.3,0.7,1.9
		c-54,37.7-89.3,100.2-89.3,170.8v32.4c-35.7-28.6-65.4-64.6-86.6-105c-24.7-47.1-37.8-100.4-37.8-154c0-25,3-49.7,9-75.4
		c14.4-3.8,50.9-14.3,89.6-31.4c67.6-29.8,107.2-64.2,117.9-102.3c0.9-3.3,0.2-6.8-1.8-9.5c-2.1-2.7-5.2-4.3-8.6-4.3h-64.6
		c24.8-35.7,85.3-118.8,136.1-155c3.5-2.5,5.2-6.8,4.3-11c-0.8-4.2-4.1-7.5-8.2-8.4l-1.2-0.3c-0.8-0.2-1.6-0.3-2.4-0.3
		C384,52,296.2,96.4,231.1,177C170.7,252,136,351.4,136,449.8c0,107.9,42,209.4,118.3,285.7c32,32,68.5,58,108.1,77.4
		c-21.3,15.3-65.6,49.9-75.6,79.1c-1.9,5.7,1.1,11.8,6.8,13.8c1.2,0.4,2.3,0.6,3.5,0.6c4.5,0,8.7-2.8,10.3-7.3
		c4.1-11.9,19-29.1,42-48.4c18.4-15.5,35.7-27.1,35.9-27.2c0.1,0,0.1-0.1,0.2-0.1c9.3,3.9,18.8,7.4,28.4,10.5
		c-16.6,20.2-49.2,63-54.7,92.3c-1.1,5.9,2.8,11.6,8.7,12.7c0.7,0.1,1.4,0.2,2,0.2c5.1,0,9.7-3.6,10.7-8.8
		c4.8-25.5,39.6-70.3,56.1-89.7c33.4,8.8,68.1,13.3,103.5,13.3c8.7,0,17.4-0.3,26.1-0.9c4.9,3.9,26.8,22.8,30.4,49.9
		c2.3,17.4-3.6,35.2-17.6,52.9c-2.1,1.6-4.2,3.1-6.4,4.5c-36,23.6-79.2,21.8-96.2-4.1c-10.1-15.4-8.9-36.9,3.1-57.4
		c2.6-4.5,1.7-10.3-2.3-13.7c-4-3.4-9.8-3.5-13.9-0.3c-39.3,31.4-52.6,79.9-31,112.8c11.7,17.9,31.7,28.6,56.2,30.2
		c2.1,0.1,4.2,0.2,6.3,0.2c21.5,0,43.9-7,63.8-20.1c16-10.5,29.2-24.2,38.2-39.6c0.1-0.2,0.2-0.4,0.3-0.7c16.9-22,24-44.7,21-67.7
		c-2.8-21.4-14-38.5-23.8-49.8c13.4-1.8,26.7-4.3,39.8-7.4c16.8,20.2,51,65.4,55.8,90.6c1,5.2,5.5,8.8,10.7,8.8c0.7,0,1.3-0.1,2-0.2
		c5.9-1.1,9.8-6.8,8.7-12.7c-5.4-28.9-37.3-71.7-54.1-92.8c9.2-2.8,18.3-5.9,27.2-9.3c3.9,2.6,18.9,13,34.8,26.4
		c23.1,19.4,38.1,36.6,42.2,48.5c1.5,4.5,5.8,7.3,10.3,7.3c1.2,0,2.3-0.2,3.5-0.6c5.7-1.9,8.7-8.1,6.8-13.8
		c-9.7-28.4-52-61.9-73.9-77.8c43.3-19.8,83.1-47.3,117.8-82C902,659.2,944,557.7,944,449.8z M489.8,1006.1
		c-17.5-1.1-31.5-8.4-39.4-20.5c-8.5-13-8.9-29.8-2.3-46.4c1,10.4,4.4,20.2,10.1,28.8c15,22.9,43.5,33.1,74.2,29.6
		C518.3,1004.1,503.7,1007,489.8,1006.1z M624.2,395c0-3.8,1.1-5.6,1.5-5.8c0.6-0.3,3,0,6.3,2.7c22.7,18.6,17.7,71.7,10.6,103
		c-11.8-6.6-24.3-12.2-37.3-16.4C611.8,459.9,624.2,421.3,624.2,395z M450.3,391.9c3.3-2.7,5.7-3,6.3-2.7c0.5,0.2,1.5,2,1.5,5.8
		c0,26.1,12.3,64.6,18.9,83.2c-13.1,4.2-25.6,9.7-37.4,16.3C432.5,463.2,427.6,410.5,450.3,391.9z M540,832.1
		c-102.1,0-198.1-39.8-270.3-112c-72.2-72.2-112-168.2-112-270.3c0-93.5,32.9-188,90.3-259.2C301.7,124.2,371.6,84,447.5,75.4
		c-61.7,56.5-124.3,151.9-127.3,156.5c-2.2,3.3-2.4,7.6-0.5,11.1c1.9,3.5,5.6,5.7,9.5,5.7h68.9c-14.3,26.2-48.4,51.7-99.8,74.4
		c-39.2,17.3-76.9,27.8-88.8,30.9c-5.2-0.5-10.1,2.7-11.5,7.9l-0.2,0.7c-0.1,0.3-0.1,0.6-0.2,0.9c-7.5,29.5-11.1,57.8-11.1,86.4
		c0,57.1,13.9,113.8,40.3,164.1c25.5,48.6,62.6,91.3,107.3,123.3c4,2.9,9.4,2.7,13.2-0.4l3-2.5c2.5-2.1,4-5.1,4-8.4v-49.5
		c0-102.8,83.7-186.5,186.5-186.5s186.5,83.7,186.5,186.5V726c0,5.2,3.7,9.7,8.8,10.7l3.7,0.7c3,0.6,6-0.1,8.4-1.9
		c44-32.2,80.5-74.7,105.6-122.9c25.9-49.9,39.6-106.1,39.6-162.7c0-28.2-3.3-56.3-9.9-83.5c0.2-2.2-0.3-4.3-1.4-6.3
		c-1.5-2.6-4-4.4-6.8-5.1c-0.4-0.1-45.5-11.1-92.7-31.9c-51.4-22.7-85.4-48.2-99.8-74.4h68.9c4,0,7.6-2.2,9.5-5.7
		c1.9-3.5,1.7-7.8-0.5-11.1c-2.9-4.4-60.1-91.5-118.9-148.6c77,20.6,143.1,61.9,192.8,121.1c56.5,67.1,87.6,154.3,87.6,245.4
		c0,102.1-39.8,198.1-112,270.3C738.1,792.4,642.1,832.1,540,832.1z"/>
</g>
</svg>
